<svg xmlns="http://www.w3.org/2000/svg" width="150" height="150" viewBox="0 0 1200 1200">
<defs /><rect fill="#35514b" height="100%" width="100%" x="0" y="0" /><path d="M 333,404 L 326,411 L 326,412 L 321,417 L 321,418 L 318,421 L 318,422 L 314,426 L 314,427 L 312,429 L 312,430 L 309,433 L 309,434 L 307,436 L 307,437 L 305,439 L 305,440 L 303,442 L 303,443 L 302,444 L 302,445 L 300,447 L 300,448 L 299,449 L 299,450 L 297,452 L 297,453 L 296,454 L 296,455 L 295,456 L 295,457 L 293,459 L 293,460 L 292,461 L 292,462 L 291,463 L 291,465 L 289,467 L 289,468 L 288,469 L 288,470 L 287,471 L 287,473 L 286,474 L 286,475 L 285,476 L 285,477 L 284,478 L 284,479 L 283,480 L 283,482 L 282,483 L 282,484 L 281,485 L 281,486 L 280,487 L 280,489 L 279,490 L 279,492 L 278,493 L 278,494 L 277,495 L 277,497 L 276,498 L 276,500 L 275,501 L 275,503 L 274,504 L 274,505 L 273,506 L 273,509 L 272,510 L 272,512 L 271,513 L 271,516 L 270,517 L 270,519 L 269,520 L 269,523 L 268,524 L 268,528 L 267,529 L 267,532 L 266,533 L 266,536 L 265,537 L 265,541 L 264,542 L 264,547 L 263,548 L 263,553 L 262,554 L 262,560 L 261,561 L 261,568 L 260,569 L 260,583 L 259,584 L 259,621 L 260,622 L 260,636 L 261,637 L 261,644 L 262,645 L 262,650 L 263,651 L 263,657 L 264,658 L 264,663 L 265,664 L 265,668 L 266,669 L 266,672 L 267,673 L 267,676 L 268,677 L 268,681 L 269,682 L 269,684 L 270,685 L 270,688 L 271,689 L 271,691 L 272,692 L 272,695 L 273,696 L 273,698 L 274,699 L 274,700 L 275,701 L 275,703 L 276,704 L 276,706 L 277,707 L 277,709 L 278,710 L 278,712 L 279,713 L 279,714 L 280,715 L 280,717 L 281,718 L 281,719 L 282,720 L 282,721 L 283,722 L 283,724 L 284,725 L 284,726 L 285,727 L 285,729 L 286,730 L 286,731 L 287,732 L 287,733 L 288,734 L 288,735 L 289,736 L 289,737 L 290,738 L 290,739 L 291,740 L 291,741 L 292,742 L 292,743 L 294,745 L 294,746 L 295,747 L 295,748 L 296,749 L 296,750 L 297,751 L 297,752 L 299,754 L 299,755 L 300,756 L 300,757 L 302,759 L 302,760 L 304,762 L 304,763 L 306,765 L 306,766 L 308,768 L 308,769 L 310,771 L 310,772 L 312,774 L 312,775 L 315,778 L 315,779 L 319,783 L 319,784 L 323,788 L 323,789 L 328,794 L 328,795 L 333,800 L 338,800 L 341,797 L 341,407 L 340,406 L 340,405 L 339,404 Z" fill="white" /><path d="M 798,306 L 797,307 L 785,307 L 784,308 L 777,308 L 776,309 L 769,309 L 768,310 L 762,310 L 761,311 L 755,311 L 754,312 L 750,312 L 749,313 L 745,313 L 744,314 L 740,314 L 739,315 L 736,315 L 735,316 L 732,316 L 731,317 L 728,317 L 727,318 L 724,318 L 723,319 L 720,319 L 719,320 L 717,320 L 716,321 L 714,321 L 713,322 L 711,322 L 710,323 L 708,323 L 707,324 L 705,324 L 704,325 L 702,325 L 701,326 L 699,326 L 698,327 L 696,327 L 695,328 L 694,328 L 693,329 L 691,329 L 690,330 L 689,330 L 688,331 L 686,331 L 685,332 L 684,332 L 683,333 L 682,333 L 681,334 L 679,334 L 678,335 L 677,335 L 676,336 L 675,336 L 674,337 L 673,337 L 672,338 L 671,338 L 670,339 L 669,339 L 668,340 L 667,340 L 666,341 L 665,341 L 664,342 L 663,342 L 662,343 L 661,343 L 660,344 L 659,344 L 658,345 L 657,345 L 656,346 L 655,346 L 653,348 L 652,348 L 651,349 L 650,349 L 649,350 L 648,350 L 646,352 L 645,352 L 643,354 L 642,354 L 641,355 L 640,355 L 638,357 L 637,357 L 635,359 L 634,359 L 632,361 L 631,361 L 629,363 L 628,363 L 625,366 L 624,366 L 621,369 L 620,369 L 617,372 L 616,372 L 612,376 L 611,376 L 606,381 L 605,381 L 579,407 L 579,408 L 573,414 L 573,415 L 569,419 L 569,420 L 566,423 L 566,424 L 564,426 L 564,427 L 561,430 L 561,431 L 559,433 L 559,434 L 557,436 L 557,437 L 555,439 L 555,440 L 553,442 L 553,443 L 552,444 L 552,445 L 550,447 L 550,448 L 549,449 L 549,450 L 548,451 L 548,452 L 546,454 L 546,455 L 545,456 L 545,457 L 544,458 L 544,459 L 543,460 L 543,461 L 542,462 L 542,463 L 541,464 L 541,465 L 540,466 L 540,467 L 538,469 L 538,471 L 537,472 L 537,473 L 536,474 L 536,475 L 535,476 L 535,477 L 534,478 L 534,480 L 533,481 L 533,482 L 532,483 L 532,485 L 531,486 L 531,487 L 530,488 L 530,490 L 529,491 L 529,492 L 528,493 L 528,495 L 527,496 L 527,498 L 526,499 L 526,500 L 525,501 L 525,502 L 524,503 L 523,502 L 523,357 L 521,355 L 521,354 L 520,354 L 518,352 L 517,352 L 516,351 L 511,351 L 510,352 L 509,352 L 508,353 L 507,353 L 506,354 L 505,354 L 503,356 L 502,356 L 501,357 L 500,357 L 498,359 L 497,359 L 495,361 L 494,361 L 493,362 L 492,362 L 489,365 L 488,365 L 486,367 L 485,367 L 482,370 L 481,370 L 478,373 L 477,373 L 473,377 L 472,377 L 468,381 L 467,381 L 459,389 L 458,389 L 444,403 L 444,404 L 436,412 L 436,413 L 431,418 L 431,419 L 428,422 L 428,423 L 425,426 L 425,427 L 422,430 L 422,431 L 420,433 L 420,434 L 418,436 L 418,437 L 416,439 L 416,440 L 414,442 L 414,443 L 412,445 L 412,446 L 411,447 L 411,448 L 410,449 L 410,450 L 408,452 L 408,453 L 407,454 L 407,455 L 406,456 L 406,457 L 404,459 L 404,460 L 403,461 L 403,462 L 402,463 L 402,464 L 401,465 L 401,466 L 400,467 L 400,468 L 399,469 L 399,470 L 398,471 L 398,472 L 397,473 L 397,474 L 396,475 L 396,476 L 395,477 L 395,479 L 394,480 L 394,481 L 393,482 L 393,484 L 392,485 L 392,486 L 391,487 L 391,489 L 390,490 L 390,491 L 389,492 L 389,494 L 388,495 L 388,496 L 387,497 L 387,499 L 386,500 L 386,502 L 385,503 L 385,505 L 384,506 L 384,508 L 383,509 L 383,512 L 382,513 L 382,515 L 381,516 L 381,519 L 380,520 L 380,522 L 379,523 L 379,527 L 378,528 L 378,531 L 377,532 L 377,536 L 376,537 L 376,540 L 375,541 L 375,546 L 374,547 L 374,552 L 373,553 L 373,559 L 372,560 L 372,568 L 371,569 L 371,581 L 370,582 L 370,623 L 371,624 L 371,636 L 372,637 L 372,645 L 373,646 L 373,651 L 374,652 L 374,657 L 375,658 L 375,663 L 376,664 L 376,668 L 377,669 L 377,672 L 378,673 L 378,677 L 379,678 L 379,681 L 380,682 L 380,685 L 381,686 L 381,688 L 382,689 L 382,691 L 383,692 L 383,695 L 384,696 L 384,698 L 385,699 L 385,701 L 386,702 L 386,704 L 387,705 L 387,707 L 388,708 L 388,710 L 389,711 L 389,712 L 390,713 L 390,715 L 391,716 L 391,717 L 392,718 L 392,720 L 393,721 L 393,722 L 394,723 L 394,724 L 395,725 L 395,727 L 396,728 L 396,729 L 397,730 L 397,731 L 398,732 L 398,733 L 399,734 L 399,735 L 400,736 L 400,737 L 401,738 L 401,739 L 402,740 L 402,741 L 403,742 L 403,743 L 404,744 L 404,745 L 406,747 L 406,748 L 407,749 L 407,750 L 408,751 L 408,752 L 410,754 L 410,755 L 411,756 L 411,757 L 413,759 L 413,760 L 414,761 L 414,762 L 416,764 L 416,765 L 418,767 L 418,768 L 420,770 L 420,771 L 423,774 L 423,775 L 426,778 L 426,779 L 429,782 L 429,783 L 433,787 L 433,788 L 439,794 L 439,795 L 463,819 L 464,819 L 469,824 L 470,824 L 474,828 L 475,828 L 478,831 L 479,831 L 482,834 L 483,834 L 485,836 L 486,836 L 489,839 L 490,839 L 492,841 L 493,841 L 495,843 L 496,843 L 497,844 L 498,844 L 500,846 L 501,846 L 503,848 L 504,848 L 505,849 L 506,849 L 507,850 L 508,850 L 509,851 L 510,851 L 511,852 L 516,852 L 517,851 L 518,851 L 519,850 L 520,850 L 521,849 L 521,848 L 523,846 L 523,701 L 524,700 L 526,702 L 526,704 L 527,705 L 527,707 L 528,708 L 528,710 L 529,711 L 529,713 L 530,714 L 530,715 L 531,716 L 531,718 L 532,719 L 532,720 L 533,721 L 533,723 L 534,724 L 534,725 L 535,726 L 535,727 L 536,728 L 536,729 L 537,730 L 537,732 L 538,733 L 538,734 L 539,735 L 539,736 L 540,737 L 540,738 L 541,739 L 541,740 L 542,741 L 542,742 L 543,743 L 543,744 L 545,746 L 545,747 L 546,748 L 546,749 L 547,750 L 547,751 L 548,752 L 548,753 L 549,754 L 549,755 L 551,757 L 551,758 L 553,760 L 553,761 L 554,762 L 554,763 L 556,765 L 556,766 L 558,768 L 558,769 L 560,771 L 560,772 L 562,774 L 562,775 L 565,778 L 565,779 L 568,782 L 568,783 L 571,786 L 571,787 L 574,790 L 574,791 L 581,798 L 581,799 L 602,820 L 603,820 L 609,826 L 610,826 L 615,831 L 616,831 L 619,834 L 620,834 L 623,837 L 624,837 L 626,839 L 627,839 L 630,842 L 631,842 L 633,844 L 634,844 L 636,846 L 637,846 L 638,847 L 639,847 L 641,849 L 642,849 L 644,851 L 645,851 L 646,852 L 647,852 L 649,854 L 650,854 L 651,855 L 652,855 L 653,856 L 654,856 L 656,858 L 657,858 L 658,859 L 659,859 L 660,860 L 661,860 L 662,861 L 663,861 L 664,862 L 665,862 L 666,863 L 667,863 L 668,864 L 669,864 L 670,865 L 671,865 L 672,866 L 673,866 L 674,867 L 675,867 L 676,868 L 678,868 L 679,869 L 680,869 L 681,870 L 682,870 L 683,871 L 685,871 L 686,872 L 687,872 L 688,873 L 689,873 L 690,874 L 692,874 L 693,875 L 695,875 L 696,876 L 697,876 L 698,877 L 700,877 L 701,878 L 703,878 L 704,879 L 706,879 L 707,880 L 709,880 L 710,881 L 712,881 L 713,882 L 715,882 L 716,883 L 719,883 L 720,884 L 723,884 L 724,885 L 726,885 L 727,886 L 730,886 L 731,887 L 735,887 L 736,888 L 739,888 L 740,889 L 743,889 L 744,890 L 748,890 L 749,891 L 754,891 L 755,892 L 760,892 L 761,893 L 766,893 L 767,894 L 774,894 L 775,895 L 785,895 L 786,896 L 797,896 L 798,897 L 849,897 L 850,896 L 861,896 L 862,895 L 871,895 L 872,894 L 878,894 L 879,893 L 883,893 L 884,892 L 889,892 L 890,891 L 895,891 L 896,890 L 899,890 L 900,889 L 904,889 L 905,888 L 908,888 L 909,887 L 912,887 L 913,886 L 916,886 L 917,885 L 919,885 L 920,884 L 922,884 L 923,883 L 926,883 L 927,882 L 928,882 L 929,881 L 930,881 L 931,880 L 932,880 L 937,875 L 937,874 L 939,872 L 939,870 L 940,869 L 940,865 L 941,864 L 941,672 L 940,671 L 940,669 L 937,666 L 935,666 L 934,665 L 933,665 L 932,666 L 930,666 L 929,667 L 928,667 L 927,668 L 926,668 L 925,669 L 924,669 L 923,670 L 922,670 L 921,671 L 920,671 L 919,672 L 918,672 L 917,673 L 916,673 L 915,674 L 914,674 L 913,675 L 912,675 L 911,676 L 910,676 L 909,677 L 908,677 L 907,678 L 905,678 L 904,679 L 902,679 L 901,680 L 900,680 L 899,681 L 898,681 L 897,682 L 895,682 L 894,683 L 892,683 L 891,684 L 889,684 L 888,685 L 886,685 L 885,686 L 883,686 L 882,687 L 880,687 L 879,688 L 876,688 L 875,689 L 873,689 L 872,690 L 869,690 L 868,691 L 864,691 L 863,692 L 859,692 L 858,693 L 854,693 L 853,694 L 848,694 L 847,695 L 837,695 L 836,696 L 810,696 L 809,695 L 800,695 L 799,694 L 794,694 L 793,693 L 790,693 L 789,692 L 786,692 L 785,691 L 782,691 L 781,690 L 778,690 L 777,689 L 775,689 L 774,688 L 773,688 L 772,687 L 770,687 L 769,686 L 767,686 L 766,685 L 765,685 L 764,684 L 763,684 L 762,683 L 761,683 L 760,682 L 759,682 L 758,681 L 757,681 L 755,679 L 754,679 L 753,678 L 752,678 L 749,675 L 748,675 L 744,671 L 743,671 L 732,660 L 732,659 L 728,655 L 728,654 L 726,652 L 726,651 L 724,649 L 724,648 L 723,647 L 723,646 L 722,645 L 722,644 L 721,643 L 721,642 L 720,641 L 720,640 L 719,639 L 719,637 L 718,636 L 718,635 L 717,634 L 717,631 L 716,630 L 716,628 L 715,627 L 715,624 L 714,623 L 714,618 L 713,617 L 713,606 L 712,605 L 712,598 L 713,597 L 713,586 L 714,585 L 714,580 L 715,579 L 715,576 L 716,575 L 716,573 L 717,572 L 717,569 L 718,568 L 718,567 L 719,566 L 719,564 L 720,563 L 720,562 L 721,561 L 721,560 L 722,559 L 722,558 L 723,557 L 723,556 L 725,554 L 725,553 L 727,551 L 727,550 L 729,548 L 729,547 L 745,531 L 746,531 L 749,528 L 750,528 L 752,526 L 753,526 L 754,525 L 755,525 L 757,523 L 758,523 L 759,522 L 760,522 L 761,521 L 762,521 L 763,520 L 764,520 L 765,519 L 766,519 L 767,518 L 769,518 L 770,517 L 772,517 L 773,516 L 774,516 L 775,515 L 777,515 L 778,514 L 781,514 L 782,513 L 785,513 L 786,512 L 788,512 L 789,511 L 793,511 L 794,510 L 800,510 L 801,509 L 808,509 L 809,508 L 838,508 L 839,509 L 847,509 L 848,510 L 854,510 L 855,511 L 859,511 L 860,512 L 864,512 L 865,513 L 868,513 L 869,514 L 872,514 L 873,515 L 876,515 L 877,516 L 879,516 L 880,517 L 882,517 L 883,518 L 886,518 L 887,519 L 889,519 L 890,520 L 891,520 L 892,521 L 894,521 L 895,522 L 897,522 L 898,523 L 899,523 L 900,524 L 902,524 L 903,525 L 904,525 L 905,526 L 907,526 L 908,527 L 909,527 L 910,528 L 911,528 L 912,529 L 913,529 L 914,530 L 915,530 L 916,531 L 918,531 L 920,533 L 921,533 L 922,534 L 923,534 L 924,535 L 925,535 L 926,536 L 927,536 L 928,537 L 929,537 L 930,538 L 937,538 L 938,537 L 939,537 L 939,536 L 940,535 L 940,533 L 941,532 L 941,344 L 940,343 L 940,334 L 939,333 L 939,331 L 938,330 L 938,329 L 937,328 L 937,327 L 935,325 L 934,325 L 932,323 L 931,323 L 930,322 L 927,322 L 926,321 L 924,321 L 923,320 L 922,320 L 921,319 L 918,319 L 917,318 L 914,318 L 913,317 L 911,317 L 910,316 L 907,316 L 906,315 L 903,315 L 902,314 L 898,314 L 897,313 L 894,313 L 893,312 L 890,312 L 889,311 L 884,311 L 883,310 L 877,310 L 876,309 L 869,309 L 868,308 L 861,308 L 860,307 L 850,307 L 849,306 Z" fill="white" />
</svg>